<?xml version="1.0" encoding="utf-8"?>
<!-- Generator: Adobe Illustrator 27.5.0, SVG Export Plug-In . SVG Version: 6.00 Build 0)  -->
<svg version="1.1" xmlns="http://www.w3.org/2000/svg" xmlns:xlink="http://www.w3.org/1999/xlink" x="0px" y="0px"
	 viewBox="0 0 500 500" style="enable-background:new 0 0 500 500;" xml:space="preserve">
<g id="BACKGROUND">
	<rect style="fill:#FFFFFF;" width="500" height="500"/>
</g>
<g id="OBJECTS">
	<g>
		<path style="fill:#DFD7EF;" d="M298.263,467.206c-1.841,1.063-4.835,1.057-6.687-0.012L74.902,342.098
			c-1.852-1.069-1.862-2.798-0.021-3.861l126.856-73.24c1.841-1.063,4.835-1.057,6.687,0.012l216.673,125.096
			c1.852,1.069,1.862,2.798,0.021,3.861L298.263,467.206z"/>
		<g>
			<g>
				<path style="fill:#DFD7EF;" d="M220.268,42.437l17.182-9.945c0.203-0.212,0.453-0.354,0.738-0.427L238.3,32l0.011,0.032
					c0.504-0.088,1.104,0.034,1.751,0.408l110.126,63.581c1.768,1.021,3.201,3.493,3.201,5.522v264.246
					c0,0.938-0.316,1.602-0.82,1.96l0.004,0.012l-0.067,0.039c-0.038,0.024-0.076,0.047-0.116,0.067l-17.339,10.036
					c-0.168,0.156-0.363,0.267-0.581,0.336l-0.165,0.095l-0.011-0.033c-0.509,0.098-1.122-0.026-1.781-0.406l-110.126-63.581
					c-1.768-1.021-3.201-3.493-3.201-5.522V44.546C219.186,43.454,219.609,42.729,220.268,42.437z"/>
				<path style="fill:#A891DF;" d="M222.388,314.314c-1.768-1.021-3.201-3.493-3.201-5.522v-4.407L333.213,111.57l20.08-10.937
					c0.057,0.309,0.096,0.614,0.096,0.91v264.246c0,0.938-0.316,1.602-0.82,1.96l0.004,0.012l-0.067,0.039
					c-0.038,0.024-0.076,0.047-0.116,0.067l-17.339,10.036c-0.168,0.156-0.363,0.267-0.581,0.336l-0.165,0.095l-0.011-0.033
					c-0.509,0.098-1.122-0.026-1.781-0.406L222.388,314.314z"/>
			</g>
			<path style="fill:#EDEBEC;" d="M219.186,308.792c0,2.029,1.433,4.501,3.201,5.522l110.126,63.581
				c1.768,1.021,3.201,0.204,3.201-1.825V111.824c0-2.029-1.433-4.501-3.201-5.522L222.388,42.721
				c-1.768-1.021-3.201-0.204-3.201,1.825V308.792z"/>
			<path style="fill:#B8105E;" d="M222.906,304.388c0,1.899,1.342,4.214,2.997,5.169l103.094,59.522
				c1.655,0.956,2.997,0.191,2.997-1.709V116.228c0-1.899-1.342-4.214-2.997-5.169L225.903,51.537
				c-1.655-0.956-2.997-0.191-2.997,1.709V304.388z"/>
			<g>
				<path style="fill:#EDEBEC;" d="M256.865,68.978l41.17,23.77l12.433,7.178c0,0-8.356-3.188-8.356,4.998
					c0,2.583-1.825,3.624-4.076,2.324l-41.17-23.77c-2.251-1.3-4.076-4.448-4.076-7.031c0-8.186-8.356-14.647-8.356-14.647
					L256.865,68.978z"/>
				<path style="fill:#DFD7EF;" d="M274.699,86.524c0,1.744,1.232,3.868,2.751,4.746c1.52,0.877,2.752,0.175,2.752-1.569
					c0-1.744-1.232-3.868-2.752-4.746C275.931,84.078,274.699,84.78,274.699,86.524z"/>
				<g>
					<path style="fill:#DFD7EF;" d="M285.291,92.639c0,1.069,0.755,2.372,1.687,2.91c0.932,0.538,1.687,0.107,1.687-0.962
						c0-1.069-0.755-2.372-1.687-2.91C286.046,91.139,285.291,91.57,285.291,92.639z"/>
					<path style="fill:#DFD7EF;" d="M266.236,81.638c0,1.069,0.755,2.372,1.687,2.91c0.932,0.538,1.687,0.107,1.687-0.962
						c0-1.069-0.755-2.372-1.687-2.91C266.991,80.138,266.236,80.569,266.236,81.638z"/>
				</g>
			</g>
		</g>
		<g>
			<g>
				<path style="fill:#F75D55;" d="M340.533,280.2l-77.522-44.757c-0.866-0.5-1.654-0.609-2.292-0.418l-0.171-0.103l-3.339,1.819
					c-0.109,0.047-0.213,0.102-0.311,0.169l-0.314,0.171l0.002,0.083c-0.424,0.458-0.676,1.163-0.676,2.083v52.503
					c0,2.405,1.699,5.335,3.795,6.545l77.522,44.757c0.857,0.495,1.64,0.608,2.275,0.425l0.144,0.097l3.246-1.768
					c0.197-0.067,0.376-0.165,0.538-0.293l0.18-0.098l-0.002-0.047c0.449-0.456,0.721-1.171,0.721-2.12v-52.503
					C344.328,284.341,342.629,281.41,340.533,280.2z"/>
				<g>
					<path style="fill:#F7AB55;" d="M255.91,291.75c0,2.405,1.699,5.335,3.795,6.545l77.522,44.757
						c2.096,1.21,3.795,0.241,3.795-2.163v-52.503c0-2.405-1.699-5.335-3.795-6.545l-77.522-44.757
						c-2.096-1.21-3.795-0.241-3.795,2.164V291.75z"/>
					<g>
						<polygon style="fill:#4E3293;" points="301.772,290.982 333.811,309.48 333.811,287.334 301.772,268.837 						"/>
						<g>
							<g>
								<polygon style="fill:#7D5ACE;" points="263.12,249.009 298.736,269.572 298.736,267.084 263.12,246.521 								"/>
								<polygon style="fill:#7D5ACE;" points="263.12,255.265 298.736,275.828 298.736,273.34 263.12,252.777 								"/>
								<polygon style="fill:#7D5ACE;" points="263.12,267.778 298.736,288.341 298.736,285.853 263.12,265.289 								"/>
								<polygon style="fill:#7D5ACE;" points="263.12,261.521 298.736,282.085 298.736,279.596 263.12,259.033 								"/>
								<polygon style="fill:#7D5ACE;" points="263.12,292.803 333.811,333.616 333.811,331.128 263.12,290.314 								"/>
								<polygon style="fill:#7D5ACE;" points="263.12,286.546 333.811,327.36 333.811,324.872 263.12,284.058 								"/>
								<polygon style="fill:#7D5ACE;" points="263.12,280.29 333.811,321.104 333.811,318.616 263.12,277.802 								"/>
								<polygon style="fill:#7D5ACE;" points="263.12,274.034 333.811,314.848 333.811,312.359 263.12,271.546 								"/>
							</g>
						</g>
					</g>
				</g>
			</g>
			<g>
				<path style="fill:#7D5ACE;" d="M210.357,277.746l0.303-1.004c0.714,0.118,1.415,0.198,2.091,0.211l3.841,5.61
					c1.326-0.143,2.709-0.522,3.864-1.017l4.28-2.443l-0.029-0.044l-1.612-6.128c0.069-0.042,0.131-0.095,0.199-0.139l3.699,2.182
					l4.324-2.479c0.601-1.26,1.076-2.669,1.418-4.212l-3.998-5.451c0.129-1.005,0.219-2.047,0.219-3.167
					c0-0.664-0.038-1.339-0.091-2.018l3.869-2.209v-0.029c-0.343-1.939-0.817-3.895-1.418-5.849l-4.829-2.635
					c-0.913-2.487-2.062-4.939-3.394-7.296l1.621-4.291c-1.155-1.828-2.4-3.593-3.726-5.267l-3.841,1.175
					c-1.706-1.937-3.536-3.69-5.463-5.194l-1.367-6.116c-0.76-0.517-1.528-1.007-2.305-1.456c-0.778-0.449-1.546-0.846-2.305-1.206
					l-4.28,2.443l-0.459,1.191c-0.714-0.118-1.415-0.198-2.091-0.211l-3.841-5.61c-1.326,0.143-2.571,0.469-3.726,0.965
					l-4.399,2.504l1.621,6.163c-0.069,0.042-0.132,0.095-0.199,0.139l-3.625-2.208l-4.403,2.514l-0.008,0.004l0.003,0.006
					c-0.597,1.255-1.069,2.657-1.41,4.192l3.998,5.451c-0.129,1.005-0.219,2.047-0.219,3.167c0,0.675,0.039,1.361,0.094,2.05
					l-3.872,2.205c0.343,1.939,0.817,3.895,1.418,5.849l4.829,2.635c0.913,2.487,2.062,4.939,3.394,7.296l-1.621,4.291
					c1.155,1.828,2.4,3.593,3.726,5.267l3.841-1.175c1.706,1.937,3.536,3.69,5.463,5.194l1.367,6.116
					c0.76,0.517,1.528,1.007,2.305,1.456c0.778,0.449,1.546,0.846,2.305,1.206L210.357,277.746z M214.626,264.03
					c-1.934,0.219-4.191-0.302-6.612-1.7c-7.102-4.101-12.86-14.032-12.86-22.182c0-2.782,0.683-4.98,1.85-6.528
					c1.934-0.218,4.191,0.303,6.612,1.7c7.102,4.101,12.86,14.032,12.86,22.182C216.476,260.284,215.792,262.483,214.626,264.03z"/>
				<polygon style="fill:#4E3293;" points="212.751,233.751 217.15,231.247 220.991,230.072 216.592,232.577 				"/>
				<path style="fill:#7D5ACE;" d="M191.312,216.053l-4.399,2.504l0.006,0.021l3.72-0.986l4.399-2.505
					C193.712,215.232,192.467,215.558,191.312,216.053z"/>
				<polygon style="fill:#4E3293;" points="194.441,223.209 198.84,220.705 198.847,220.651 195.038,215.089 190.639,217.593 				
					"/>
				<path style="fill:#7D5ACE;" d="M201.389,219.822l4.757,2.568l4.188-2.39l-0.014-0.063c-0.76-0.517-1.528-1.007-2.305-1.456
					c-0.778-0.449-1.546-0.846-2.305-1.206l-4.28,2.443L201.389,219.822z"/>
				<polygon style="fill:#4E3293;" points="210.334,220 205.938,222.52 207.288,228.558 211.687,226.053 				"/>
				<path style="fill:#7D5ACE;" d="M220.318,237.843l4.399-2.504c-1.155-1.828-2.4-3.593-3.726-5.267l-4.399,2.504L220.318,237.843z
					"/>
				<polygon style="fill:#4E3293;" points="218.697,242.135 223.096,239.63 224.716,235.339 220.318,237.843 				"/>
				<path style="fill:#7D5ACE;" d="M226.92,252.065l1.418,5.849l4.399-2.504c-0.343-1.939-0.817-3.895-1.418-5.849L226.92,252.065z"
					/>
				<polygon style="fill:#4E3293;" points="226.92,252.065 231.318,249.56 226.489,246.926 222.091,249.43 				"/>
				<polygon style="fill:#4E3293;" points="224.34,265.336 225.294,270.263 228.338,270.788 232.737,268.283 228.739,262.832 				
					"/>
				<path style="fill:#A891DF;" d="M182.891,241.406l-3.998,0.835c0.343,1.939,0.817,3.895,1.418,5.849l4.829,2.635
					c0.913,2.487,2.062,4.939,3.394,7.296l-1.621,4.291c1.155,1.828,2.4,3.593,3.726,5.267l3.841-1.175
					c1.706,1.937,3.536,3.69,5.463,5.194l1.367,6.116c0.76,0.517,1.528,1.007,2.305,1.456c0.778,0.449,1.546,0.846,2.305,1.206
					l1.368-4.537c1.927,0.72,3.757,1.081,5.463,1.114l3.841,5.61c1.326-0.143,2.571-0.469,3.726-0.965l-1.621-6.163
					c1.331-0.819,2.48-1.944,3.394-3.377l4.829,2.941c0.601-1.26,1.076-2.669,1.418-4.212l-3.998-5.451
					c0.129-1.005,0.219-2.047,0.219-3.167c0-1.12-0.09-2.266-0.219-3.42l3.998-0.835c-0.343-1.939-0.817-3.895-1.418-5.849
					l-4.829-2.635c-0.913-2.487-2.062-4.939-3.394-7.296l1.621-4.291c-1.155-1.828-2.4-3.593-3.726-5.267l-3.841,1.175
					c-1.706-1.937-3.536-3.69-5.463-5.194l-1.368-6.116c-0.76-0.517-1.528-1.007-2.305-1.456c-0.778-0.449-1.546-0.846-2.305-1.206
					l-1.367,4.537c-1.927-0.721-3.757-1.081-5.463-1.114l-3.841-5.61c-1.326,0.143-2.571,0.469-3.726,0.964l1.621,6.163
					c-1.332,0.819-2.48,1.945-3.394,3.377l-4.829-2.941c-0.601,1.26-1.076,2.669-1.418,4.212l3.998,5.451
					c-0.129,1.005-0.219,2.047-0.219,3.167C182.672,239.106,182.762,240.252,182.891,241.406z M190.755,242.653
					c0-8.15,5.758-11.433,12.86-7.332c7.102,4.101,12.86,14.032,12.86,22.182c0,8.15-5.758,11.433-12.86,7.332
					C196.513,260.734,190.755,250.803,190.755,242.653z"/>
			</g>
			<g>
				<g>
					<path style="fill:#C5C9E2;" d="M323.812,134.925L183.513,53.924c-1.127-0.651-2.128-0.654-2.823-0.16l-0.015-0.009
						l-5.132,2.795c-0.836,0.316-1.38,1.19-1.38,2.537v93.186c0,2.405,1.699,5.335,3.795,6.545l140.299,81.002
						c1.053,0.608,2.004,0.664,2.692,0.267l0.042,0.025l5.397-2.939l-0.002-0.038c0.747-0.364,1.222-1.217,1.222-2.478v-93.186
						C327.606,139.066,325.907,136.135,323.812,134.925z"/>
					<g>
						<path style="fill:#DDD8EE;" d="M174.162,152.273c0,2.405,1.699,5.335,3.795,6.545l140.299,81.001
							c2.096,1.21,3.795,0.241,3.795-2.163V144.47c0-2.405-1.699-5.335-3.795-6.545L177.957,56.923
							c-2.096-1.21-3.795-0.241-3.795,2.164V152.273z"/>
					</g>
				</g>
				<g>
					<g>
						<polygon style="fill:#A891DF;" points="206.276,185.535 221.021,194.048 221.021,117.818 206.276,109.305 						"/>
						<polygon style="fill:#7D5ACE;" points="230.376,112.738 221.021,117.833 206.276,109.303 215.631,104.207 						"/>
						<polygon style="fill:#4E3293;" points="230.376,112.787 221.021,117.882 221.021,194.048 230.376,188.953 						"/>
					</g>
					<g>
						<polygon style="fill:#F7AB55;" points="181.122,171.012 195.867,179.525 195.867,135.643 181.122,127.13 						"/>
						<polygon style="fill:#F88455;" points="205.222,130.574 195.867,135.67 181.122,127.139 190.477,122.044 						"/>
						<polygon style="fill:#F75D55;" points="205.222,130.566 195.867,135.661 195.867,179.525 205.222,174.43 						"/>
					</g>
					<g>
						<polygon style="fill:#A891DF;" points="256.584,214.58 271.329,223.093 271.329,162.291 256.584,153.778 						"/>
						<polygon style="fill:#7D5ACE;" points="280.684,157.23 271.329,162.326 256.584,153.795 265.939,148.7 						"/>
						<polygon style="fill:#4E3293;" points="280.684,157.23 271.329,162.326 271.329,223.093 280.684,217.998 						"/>
					</g>
					<g>
						<polygon style="fill:#F7AB55;" points="231.43,200.057 246.175,208.571 246.175,181.783 231.43,173.269 						"/>
						<polygon style="fill:#F88455;" points="255.53,176.663 246.175,181.758 231.43,173.227 240.785,168.132 						"/>
						<polygon style="fill:#F75D55;" points="255.53,176.663 246.175,181.758 246.175,208.671 255.53,203.575 						"/>
					</g>
					<g>
						<polygon style="fill:#F7AB55;" points="281.738,229.103 296.483,237.616 296.483,153.922 281.738,145.408 						"/>
						<polygon style="fill:#F75D55;" points="305.838,148.844 296.483,153.939 296.483,237.616 305.838,232.521 						"/>
						<polygon style="fill:#F88455;" points="281.738,145.408 291.041,140.413 305.838,148.844 296.483,153.939 						"/>
					</g>
				</g>
			</g>
		</g>
		<polygon style="fill:none;stroke:#000000;stroke-miterlimit:10;" points="244.539,380.81 244.539,380.81 244.539,380.81 		"/>
		<polygon style="fill:none;stroke:#000000;stroke-miterlimit:10;" points="244.539,380.81 244.539,380.81 244.539,380.81 		"/>
		<polygon style="fill:none;stroke:#000000;stroke-miterlimit:10;" points="244.539,380.81 244.539,380.81 244.539,380.81 		"/>
		<g>
			<g>
				<g>
					<path style="fill:#E8E8E8;" d="M237.886,338.157c11.769-3.448,25.063-4.576,37.866-3.389
						c12.517,1.161,24.561,4.526,34.233,10.11l-43.748,25.258h0l-55.389-16.368c2.867-3.262,6.647-6.323,11.367-9.048
						C226.933,341.994,232.235,339.812,237.886,338.157z"/>
					<polygon style="fill:#AEAEB0;" points="266.236,370.136 266.236,409.417 309.984,384.159 309.984,344.878 					"/>
					<polygon style="fill:#C6C6C6;" points="210.847,353.767 210.847,393.048 266.236,409.417 266.236,370.136 					"/>
				</g>
				<g>
					<path style="fill:#FD4E87;" d="M327.495,373.9c2.056,7.392,0.102,15.067-5.87,21.862l-55.389-16.368l43.748-25.258
						C319.656,359.72,325.485,366.673,327.495,373.9z"/>
					<path style="fill:#FF0F5C;" d="M328.278,410.208c-0.146,5.359-2.362,10.695-6.653,15.577v-30.023
						c4.106-4.672,6.313-9.76,6.622-14.886L328.278,410.208z"/>
					<polygon style="fill:#B8105E;" points="266.236,379.394 266.236,409.417 321.626,425.785 321.626,395.762 					"/>
				</g>
				<g>
					<path style="fill:#A891DF;" d="M321.626,406.328c-2.867,3.262-6.647,6.323-11.367,9.048c-4.72,2.725-10.022,4.907-15.672,6.563
						l-28.35-31.979L321.626,406.328z"/>
					<path style="fill:#7D5ACE;" d="M321.626,425.785c-2.867,3.262-6.647,6.323-11.367,9.048c-4.72,2.725-10.022,4.907-15.672,6.563
						v-19.456c5.65-1.655,10.953-3.837,15.672-6.563c4.72-2.725,8.499-5.786,11.367-9.048V425.785z"/>
					<polygon style="fill:#4E3293;" points="294.587,441.396 266.236,409.417 266.236,389.96 294.587,421.939 					"/>
				</g>
			</g>
			<g>
				<path style="fill:#F88455;" d="M294.587,427.223c-11.769,3.448-25.063,4.576-37.866,3.389
					c-12.517-1.161-24.561-4.526-34.233-10.11c-9.671-5.584-15.501-12.537-17.511-19.764c-0.348-1.251-0.581-2.511-0.699-3.772
					l0.001,14.181c0.118,1.259,0.351,2.516,0.699,3.764c2.01,7.227,7.84,14.181,17.511,19.764c9.671,5.584,21.715,8.95,34.233,10.11
					c12.803,1.187,26.097,0.059,37.866-3.389V427.223z"/>
				<path style="fill:#F7AB55;" d="M266.236,395.243L266.236,395.243l28.35,31.979c-11.769,3.448-25.063,4.576-37.866,3.389
					c-12.517-1.161-24.561-4.526-34.233-10.11c-9.671-5.584-15.501-12.537-17.511-19.764c-2.056-7.392-0.102-15.067,5.87-21.862
					L266.236,395.243z"/>
			</g>
		</g>
		<g>
			<g>
				<g>
					<path style="fill:#B8105E;" d="M146.621,346.714c0,0-1.566,6.133-0.786,7.951c0.779,1.818,2.637,2.548,4.584,3.327
						c1.948,0.779,3.895,3.896,8.181,4.155c4.285,0.26,7.142-0.779,6.752-2.337c-0.39-1.558-5.713-4.545-5.713-4.545
						s-5.623-5.275-6.272-6.184C152.717,348.172,147.278,343.589,146.621,346.714z"/>
					<path style="fill:#F49A89;" d="M139.402,256.588c0,0,6.901,91.769,7.782,93.238c0.881,1.468,4.232,0.734,4.392-2.349
						c0.16-3.083,6.327-92.357,6.327-92.357L139.402,256.588z"/>
				</g>
				<g>
					<path style="fill:#FF1061;" d="M139.277,351.857c0,0-1.566,6.133-0.786,7.951c0.779,1.818,2.637,2.548,4.584,3.327
						c1.948,0.779,3.896,3.895,8.181,4.155c4.285,0.26,7.142-0.779,6.752-2.337c-0.39-1.558-5.713-4.545-5.713-4.545
						s-5.623-5.275-6.272-6.184C145.373,353.315,139.934,348.732,139.277,351.857z"/>
					<path style="fill:#FFC1A3;" d="M132.059,261.731c0,0,6.901,91.77,7.782,93.238c0.881,1.468,4.232,0.734,4.392-2.349
						c0.16-3.083,6.327-92.357,6.327-92.357L132.059,261.731z"/>
				</g>
				<path style="fill:#382D6B;" d="M133.087,206.082c0,0-6.607,14.036-7.048,20.673c-0.44,6.637,0.587,50.54,1.028,52.302
					s6.159,9.212,14.906,6.314c11.964-3.964,18.866-11.637,20.04-15.308c1.175-3.671,0-60.897,0-60.897
					S149.679,197.565,133.087,206.082z"/>
			</g>
			<g>
				<path style="fill:#FFC1A3;" d="M174.131,145.2c0,0-0.528-4.694,0.661-5.822c1.189-1.127,2.402-1.512,3.336-2.52
					c0.935-1.008,2.102-4.14,2.779-4.182c0.678-0.042,0.533,2.585,0.175,3.934c-0.359,1.348-1.77,2.613-1.375,2.731
					c0.395,0.118,3.574-1.812,4.521-2.449c0.947-0.636,2.818-5.58,3.551-5.83c0.733-0.249,1.483,7.783,0.91,9.1
					c-0.573,1.318-9.391,6.074-10.305,6.169c-0.914,0.095-1.634,4.119-1.634,4.119l-4.055-1.524L174.131,145.2z"/>
				<g>
					<path style="fill:#FF1061;" d="M154.741,152.246c0,0,8.338,10.278,12.008,19.382c0,0,4.478-22.612,5.946-24.081
						c1.468-1.468,4.699-0.116,5.433,1.646c0.734,1.762,1.504,32.809-2.02,38.242c-3.524,5.433-20.556-7.288-23.64-10.839
						C149.385,173.045,152.021,158.317,154.741,152.246z"/>
					<path style="fill:none;stroke:#B8105E;stroke-miterlimit:10;" d="M166.749,171.627c0,0-1.638,4.054,0,9.984"/>
				</g>
			</g>
			<path style="fill:#382D6B;" d="M140.009,152.01c0.324,2.424,0.27,4.489-0.519,5.516c-2.753,3.585-13.492,1.505-14.043-3.788
				c-0.551-5.293,2.478-12.982,2.065-19.256c-0.413-6.275-2.753-16.681-1.514-19.256c1.239-2.575,10.05-2.162,10.05-2.162
				s9.086-6.746,16.796-3.442s2.065,16.107,3.992,20.375c1.927,4.268,6.043,19.045,2.398,21.89
				c-5.644,4.406-13.549-0.964-13.549-0.964l-0.861-3.501L140.009,152.01z"/>
			<path style="fill:#B8105E;" d="M120.459,167.856c-0.051-3.699,10.425-13.9,16.298-16.983c5.873-3.083,14.668-1.357,17.269,0.665
				c2.6,2.022,3.728,8.145,3.728,8.145s4.486,5.589,4.78,9.544c0.294,3.956-3.165,8.775-3.165,8.775s-0.587,14.392,0.147,17.418
				c0.734,3.026,4.111,12.13,3.964,15.36c-0.147,3.23-3.377,16.152-15.711,18.354c-12.334,2.202-21.437-6.314-21.29-9.104
				c0.147-2.79,6.331-15.092,6.331-17.717C132.81,199.688,120.606,178.526,120.459,167.856z"/>
			<path style="fill:#E8E8E8;" d="M133.747,152.772c0,0-0.551,3.68,0,5.332c0.551,1.652,9.288,5.981,9.288,5.981l1.198-7.743
				l7.355,3.414c0,0-1.003-4.3-1.823-5.784c-0.82-1.484-5.998-4.538-5.998-4.538S138.152,148.321,133.747,152.772z"/>
			<g>
				<path style="fill:#FFC1A3;" d="M125.931,220.113c0,0,2.941,4.19,4.462,4.19c1.521,0,6.219-3.093,7.688-4.19
					c1.468-1.096,4.526-0.509,4.832-0.803c0.307-0.294-4.832-6.167-6.594-6.167S125.931,220.113,125.931,220.113z"/>
				<g>
					<path style="fill:#FF1061;" d="M120.459,167.856c2.518-3.218,7.048-0.963,8.883,0.791c1.835,1.755,3.304,10.858,0,15.557
						c-3.304,4.699-11.526,13.949-12.26,14.977c-0.734,1.028,13.327,16.298,14.225,18.207c0.898,1.909,0.328,4.529-1.965,4.405
						c-2.293-0.124-23.126-12.956-25.035-17.931C102.399,198.887,116.935,172.359,120.459,167.856z"/>
					<path style="fill:none;stroke:#B8105E;stroke-miterlimit:10;" d="M117.082,199.181c0,0-6.811-2.361-9.544,1.615"/>
				</g>
			</g>
			<g>
				<path style="fill:#FFC1A3;" d="M131.107,120.824c1.445-2.685,18.622-4.663,20.48-1.152c1.859,3.511,3.39,18.583,0.705,21.096
					c-2.685,2.514-7.71,3.09-7.71,3.09v7.968c0,0-1.996,4.672-8.398,0.129v-10.119L131.107,120.824z"/>
				<path style="fill:#453580;" d="M125.998,115.225c-1.239,2.575,1.101,12.982,1.514,19.256c0.413,6.275-2.616,13.963-2.065,19.256
					c0.551,5.293,11.289,7.373,14.043,3.788c2.753-3.585-3.442-19.819-3.442-19.819v-8.123c1.363-2.045,1.788-4.674,1.818-7.06
					l-0.717-6.295l-1.101-3.166C136.048,113.063,127.237,112.65,125.998,115.225z"/>
				<path style="fill:#FFC1A3;" d="M136.048,137.706v-8.123c0,0-2.203-6.058-5.851-1.79
					C128.74,129.497,131.229,138.67,136.048,137.706z"/>
			</g>
		</g>
	</g>
</g>
</svg>
